<svg width="76" height="76" viewBox="0 0 76 76" fill="none" xmlns="http://www.w3.org/2000/svg">
<path d="M72.39 22.6189C71.8542 22.1517 71.1917 21.8544 70.4866 21.7645C69.7814 21.6746 69.0655 21.7964 68.4297 22.1142L53.5236 29.5361L41.0786 8.86466C40.7587 8.33422 40.3071 7.89544 39.7677 7.59085C39.2284 7.28627 38.6194 7.12622 38 7.12622C37.3805 7.12622 36.7716 7.28627 36.2322 7.59085C35.6928 7.89544 35.2413 8.33422 34.9214 8.86466L22.4764 29.545L7.57624 22.1231C6.94194 21.8081 6.22873 21.6874 5.5261 21.7763C4.82348 21.8651 4.16275 22.1595 3.62683 22.6225C3.09091 23.0855 2.70367 23.6964 2.5137 24.3787C2.32374 25.061 2.33951 25.7841 2.55905 26.4575L13.5434 60.1112C13.6539 60.4493 13.8388 60.7583 14.0847 61.0153C14.3305 61.2724 14.6309 61.4709 14.9638 61.5963C15.2966 61.7217 15.6534 61.7707 16.0077 61.7397C16.362 61.7088 16.7049 61.5987 17.0109 61.4175C17.0851 61.3729 24.6762 57 38 57C51.3237 57 58.9148 61.3729 58.9831 61.4145C59.2893 61.5974 59.6327 61.7091 59.9879 61.7411C60.3432 61.7731 60.701 61.7248 61.035 61.5996C61.3689 61.4744 61.6704 61.2756 61.917 61.0179C62.1637 60.7602 62.3491 60.4503 62.4595 60.1112L73.4439 26.4664C73.6697 25.7929 73.6901 25.0674 73.5024 24.3822C73.3148 23.6971 72.9275 23.0833 72.39 22.6189ZM58.7812 56.0589C55.2187 54.5478 48.1175 52.25 38 52.25C27.8825 52.25 20.7812 54.5478 17.2187 56.0589L7.92952 27.6093L21.3097 34.2801C22.1196 34.6795 23.0497 34.7612 23.9168 34.5089C24.7838 34.2567 25.525 33.689 25.9944 32.9175L38 12.9615L50.0056 32.9115C50.4753 33.6818 51.216 34.2486 52.0822 34.5007C52.9485 34.7528 53.8776 34.672 54.6873 34.2742L68.0704 27.6093L58.7812 56.0589ZM52.2114 46.5589C52.1145 47.1083 51.8272 47.606 51.4 47.9649C50.9728 48.3237 50.4329 48.5206 49.875 48.5212C49.7357 48.521 49.5967 48.5091 49.4594 48.4856C41.8733 47.1833 34.1208 47.1833 26.5347 48.4856C25.9142 48.595 25.2757 48.4535 24.7596 48.0922C24.2435 47.7309 23.8921 47.1793 23.7826 46.5589C23.6732 45.9384 23.8147 45.2999 24.176 44.7838C24.5374 44.2677 25.0889 43.9163 25.7094 43.8068C33.8416 42.4096 42.1525 42.4096 50.2847 43.8068C50.9039 43.9156 51.4547 44.2654 51.8165 44.7796C52.1782 45.2938 52.3213 45.9304 52.2144 46.55L52.2114 46.5589Z" fill="#C69F0F"/>
</svg>
