<svg width="74" height="74" viewBox="0 0 74 74" fill="none" xmlns="http://www.w3.org/2000/svg">
<path d="M62.3768 34.1585C62.2892 33.7879 62.1115 33.4446 61.8593 33.1592C61.6072 32.8738 61.2885 32.655 60.9315 32.5224L44.2786 26.2758L48.5162 5.07883C48.6122 4.58632 48.5453 4.07597 48.3258 3.62479C48.1063 3.1736 47.7459 2.80606 47.2992 2.57763C46.8524 2.3492 46.3435 2.27227 45.8492 2.35845C45.3549 2.44463 44.902 2.68925 44.559 3.05539L12.184 37.7429C11.921 38.02 11.7308 38.3578 11.6303 38.7264C11.5298 39.0949 11.5222 39.4826 11.608 39.8548C11.6939 40.227 11.8707 40.5721 12.1225 40.8593C12.3743 41.1465 12.6934 41.3669 13.0511 41.5007L29.7098 47.7473L25.4837 68.9212C25.3878 69.4137 25.4546 69.924 25.6741 70.3752C25.8937 70.8264 26.254 71.1939 26.7008 71.4224C27.1475 71.6508 27.6564 71.7277 28.1507 71.6415C28.645 71.5554 29.0979 71.3107 29.441 70.9446L61.816 36.2571C62.0742 35.98 62.2603 35.6437 62.3581 35.2778C62.4559 34.9118 62.4623 34.5275 62.3768 34.1585ZM31.6147 61.8594L34.6412 46.7183C34.7495 46.1813 34.6637 45.6233 34.399 45.1437C34.1343 44.6641 33.708 44.294 33.1959 44.0994L17.9218 38.3615L42.3823 12.1551L39.3587 27.2962C39.2504 27.8332 39.3362 28.3912 39.6009 28.8708C39.8656 29.3504 40.292 29.7205 40.804 29.9151L56.0665 35.6385L31.6147 61.8594Z" fill="#C69F0F"/>
</svg>
